<svg width="90" height="40" viewBox="0 0 90 40" fill="none" xmlns="http://www.w3.org/2000/svg">
<g id="Algem_Logo_Designs-07 3">
<path id="Vector" d="M15.4478 14.2465C13.803 12.6497 11.8213 11.8512 9.50222 11.8512C7.17778 11.8512 5.1931 12.6497 3.54852 14.2465C1.90379 15.8382 1.08142 17.7561 1.08142 20.0004C1.08142 22.25 1.90379 24.1705 3.54852 25.7622C5.1931 27.3538 7.17778 28.1495 9.50222 28.1495H13.7126H17.923V20.0004C17.923 17.7561 17.0979 15.8382 15.4478 14.2465ZM13.7126 24.0749H9.50222C8.33995 24.0749 7.34766 23.677 6.5253 22.8813C5.70303 22.0854 5.2918 21.1252 5.2918 20.0004C5.2918 18.8809 5.70303 17.9233 6.5253 17.1274C7.34766 16.3263 8.33991 15.9257 9.50222 15.9257C10.6589 15.9257 11.6485 16.3263 12.4709 17.1274C13.2987 17.9233 13.7126 18.8809 13.7126 20.0004V24.0749H13.7126Z" fill="#3BB1E6"/>
<path id="Vector_2" d="M24.0348 3.70203H19.8244V28.1496H24.0348V3.70203Z" fill="#3BB1E6"/>
<path id="Vector_3" d="M57.9583 14.2468C56.3136 12.6501 54.3317 11.8516 52.0126 11.8516C49.688 11.8516 47.7035 12.6501 46.0588 14.2468C44.4142 15.8385 43.5919 17.7565 43.5919 20.0007C43.5919 22.2504 44.4142 24.1709 46.0588 25.7625C47.7035 27.3542 49.6881 28.1499 52.0126 28.1499V24.0754H56.2231V20.0007H52.0126V24.0752C50.8503 24.0752 49.8581 23.6773 49.0357 22.8816C48.2134 22.0857 47.8023 21.1255 47.8023 20.0007C47.8023 18.8812 48.2135 17.9236 49.0357 17.1277C49.8581 16.3266 50.8503 15.926 52.0126 15.926C53.1694 15.926 54.1589 16.3266 54.9814 17.1277C55.8091 17.9236 56.2231 18.8812 56.2231 20.0007H60.4334C60.4334 17.7565 59.6083 15.8385 57.9583 14.2468Z" fill="#FAAE38"/>
<g id="Group">
<path id="Vector_4" d="M33.9046 24.0755H38.1151V20.0007H33.9046V24.0752C32.7423 24.0752 31.7501 23.6774 30.9277 22.8817C30.1054 22.0857 29.6943 21.1256 29.6943 20.0007C29.6943 18.8813 30.1054 17.9237 30.9277 17.1277C31.7501 16.3267 32.7423 15.926 33.9046 15.926C35.0613 15.926 36.0509 16.3267 36.8733 17.1277C37.7011 17.9237 38.1151 18.8813 38.1151 20.0007H42.3254C42.3254 17.7565 41.5003 15.8385 39.8503 14.2468C38.2055 12.6501 36.2237 11.8516 33.9046 11.8516C31.58 11.8516 29.5955 12.6501 27.9508 14.2468C26.3062 15.8385 25.4838 17.7565 25.4838 20.0007C25.4838 22.2504 26.3062 24.1709 27.9508 25.7625C29.5955 27.3542 31.58 28.1499 33.9046 28.1499V24.0755Z" fill="#3BB1E6"/>
<path id="Vector_5" d="M38.1156 28.1497C38.1156 29.2686 37.7032 30.226 36.8738 31.0221C36.0512 31.8225 35.0619 32.2239 33.9057 32.2239C32.7428 32.2239 31.7534 31.8225 30.9308 31.0243L27.9537 33.9054C29.5989 35.4997 31.5821 36.2979 33.9057 36.2979C36.2247 36.2979 38.2057 35.4997 39.851 33.9032C41.5007 32.3111 42.3255 30.3939 42.3255 28.1497V24.0756H38.1156V28.1497Z" fill="#3BB1E6"/>
</g>
<path id="Vector_6" d="M86.4443 14.2456C84.799 12.6491 82.8158 11.8508 80.4967 11.8508C78.4864 11.8508 76.7308 12.4484 75.2299 13.6414C73.7289 12.4484 71.9778 11.8508 69.972 11.8508C67.6484 11.8508 65.6629 12.6491 64.0177 14.2456C62.3725 15.8377 61.5521 17.757 61.5521 20.0013V28.1495H65.7621V20.0013C65.7621 18.8802 66.1722 17.9227 66.9948 17.1267C67.8174 16.3263 68.8091 15.9249 69.972 15.9249C71.0109 15.9249 71.9147 16.2499 72.6854 16.8976C72.7711 16.9675 72.8567 17.0459 72.9401 17.1267C73.7695 17.9227 74.1819 18.8802 74.1819 20.0013V28.1495H76.2868H78.3918V20.0013C78.3918 18.8868 78.189 17.8508 77.7788 16.8955C78.5473 16.2478 79.4556 15.9249 80.4968 15.9249C81.6552 15.9249 82.6446 16.3263 83.4672 17.1267C84.2943 17.9227 84.709 18.8802 84.709 20.0013V28.1495H88.9189V20.0013C88.9188 17.757 88.094 15.8377 86.4443 14.2456Z" fill="#FAAE38"/>
</g>
</svg>
